<?xml version="1.0" encoding="utf-8"?>
<!-- Generator: Adobe Illustrator 17.0.0, SVG Export Plug-In . SVG Version: 6.00 Build 0)  -->
<!DOCTYPE svg PUBLIC "-//W3C//DTD SVG 1.1//EN" "http://www.w3.org/Graphics/SVG/1.1/DTD/svg11.dtd">
<svg version="1.1" id="Layer_1" xmlns="http://www.w3.org/2000/svg" xmlns:xlink="http://www.w3.org/1999/xlink" x="0px" y="0px"
	 width="10px" height="8px" viewBox="0 0 10 8" enable-background="new 0 0 10 8" xml:space="preserve">
<g>
	<path fill="#333333" d="M8.479,3.03C8.479,3.763,10,3.882,10,5.684C10,7.01,9.052,8,7.728,8C6.305,8,5.376,6.733,5.376,5.386
		C5.376,3.07,7.55,0,8.894,0C9.23,0,9.842,0.237,9.842,0.654C9.842,1.069,8.479,1.782,8.479,3.03z M3.104,3.03
		c0,0.733,1.52,0.852,1.52,2.654C4.624,7.01,3.677,8,2.351,8C0.93,8,0,6.733,0,5.386C0,3.069,2.174,0,3.519,0
		c0.336,0,0.947,0.237,0.947,0.654C4.467,1.069,3.104,1.782,3.104,3.03z"/>
</g>
</svg>
