<?xml version="1.0" encoding="utf-8"?>
<!-- Generator: Adobe Illustrator 17.0.0, SVG Export Plug-In . SVG Version: 6.00 Build 0)  -->
<!DOCTYPE svg PUBLIC "-//W3C//DTD SVG 1.1//EN" "http://www.w3.org/Graphics/SVG/1.1/DTD/svg11.dtd">
<svg version="1.1" id="Layer_1" xmlns="http://www.w3.org/2000/svg" xmlns:xlink="http://www.w3.org/1999/xlink" x="0px" y="0px"
	 width="10px" height="8px" viewBox="0 0 10 8" enable-background="new 0 0 10 8" xml:space="preserve">
<g>
	<path fill="#333333" d="M1.521,4.97C1.521,4.237,0,4.118,0,2.316C0,0.99,0.948,0,2.272,0c1.423,0,2.352,1.267,2.352,2.614
		C4.624,4.93,2.45,8,1.106,8C0.77,8,0.158,7.763,0.158,7.346C0.158,6.931,1.521,6.218,1.521,4.97z M6.896,4.97
		c0-0.733-1.52-0.852-1.52-2.654C5.376,0.99,6.323,0,7.649,0c1.422,0,2.352,1.267,2.352,2.614C10.001,4.93,7.827,8,6.482,8
		C6.146,8,5.535,7.763,5.535,7.346C5.533,6.931,6.896,6.218,6.896,4.97z"/>
</g>
</svg>
